<?xml version="1.0" encoding="UTF-8"?>
<svg width="582px" height="178px" viewBox="0 0 582 178" version="1.1" xmlns="http://www.w3.org/2000/svg" xmlns:xlink="http://www.w3.org/1999/xlink">
    <!-- Generator: Sketch 57.1 (83088) - https://sketch.com -->
    <title>logo-new</title>
    <desc>Created with Sketch.</desc>
    <defs>
        <path d="M29.3798828,19.1762695 L12.434082,19.1762695 L12.434082,25.3530273 L17.2949219,25.3530273 C20.3922681,25.3530273 23.1314985,25.8811796 25.5126953,26.9375 C27.8938921,27.9938204 29.7245216,29.484284 31.0046387,31.4089355 C32.2847557,33.3335871 32.9248047,35.5401894 32.9248047,38.0288086 C32.9248047,41.8781117 31.4970032,45.0022667 28.6413574,47.4013672 C25.7857116,49.8004677 21.9498939,51 17.1337891,51 L2.95410156,51 L2.95410156,11.8984375 L29.3798828,11.8984375 L29.3798828,19.1762695 Z M12.434082,32.6040039 L12.434082,43.7490234 L17.2680664,43.7490234 C19.1837661,43.7490234 20.7010849,43.2119194 21.8200684,42.1376953 C22.9390518,41.0634712 23.4985352,39.6759525 23.4985352,37.9750977 C23.4985352,36.3637615 22.9435277,35.0657601 21.8334961,34.0810547 C20.7234645,33.0963492 19.1837664,32.6040039 17.2143555,32.6040039 L12.434082,32.6040039 Z M60.2368164,11.8984375 L69.6630859,11.8984375 L69.6630859,51 L60.2368164,51 L60.2368164,26.3466797 L46.1914062,51 L36.7651367,51 L36.7651367,11.8984375 L46.1914062,11.8984375 L46.1914062,36.5786133 L60.2368164,11.8984375 Z M94.4506836,22.7480469 C94.4506836,21.5126891 93.9717659,20.5190467 93.013916,19.7670898 C92.0560662,19.015133 90.7625407,18.6391602 89.1333008,18.6391602 C87.6114833,18.6391602 86.3895717,19.0017054 85.4675293,19.7268066 C84.5454869,20.4519079 84.0844727,21.4052675 84.0844727,22.5869141 L74.6850586,22.5869141 C74.6850586,20.4384658 75.2982523,18.5138431 76.5246582,16.8129883 C77.7510641,15.1121334 79.4832245,13.782801 81.7211914,12.8249512 C83.9591583,11.8671013 86.4298367,11.3881836 89.1333008,11.3881836 C93.788272,11.3881836 97.4092481,12.3639225 99.9963379,14.3154297 C102.583428,16.2669368 103.876953,18.9972155 103.876953,22.5063477 C103.876953,24.2967212 103.353277,25.9304125 102.305908,27.4074707 C101.25854,28.8845289 99.8128347,30.0527301 97.96875,30.9121094 C100.081391,31.6640663 101.697179,32.8054123 102.816162,34.3361816 C103.935146,35.866951 104.494629,37.7691944 104.494629,40.0429688 C104.494629,43.5521009 103.098158,46.3405658 100.305176,48.4084473 C97.5121931,50.4763287 93.788272,51.5102539 89.1333008,51.5102539 C84.8185006,51.5102539 81.2378072,50.4942322 78.3911133,48.4621582 C75.5444194,46.4300842 74.1210938,43.6595228 74.1210938,40.1503906 L83.5742188,40.1503906 C83.5742188,41.3141334 84.0934193,42.2943482 85.1318359,43.0910645 C86.1702526,43.8877807 87.5040609,44.2861328 89.1333008,44.2861328 C90.8878668,44.2861328 92.3111925,43.8743531 93.4033203,43.0507812 C94.4954482,42.2272094 95.0415039,41.1530014 95.0415039,39.828125 C95.0415039,37.8945216 94.5760138,36.5293822 93.6450195,35.732666 C92.7140253,34.9359498 91.3533618,34.5375977 89.5629883,34.5375977 L84.5410156,34.5375977 L84.5410156,27.5551758 L89.8852539,27.5551758 C92.9288889,27.4656571 94.4506836,25.8632968 94.4506836,22.7480469 Z M142.709961,51 L133.337402,51 L133.337402,34.671875 L119.453125,34.671875 L119.453125,51 L110.026855,51 L110.026855,11.8984375 L119.453125,11.8984375 L119.453125,27.4208984 L133.337402,27.4208984 L133.337402,11.8984375 L142.709961,11.8984375 L142.709961,51 Z M172.922363,34.4301758 L158.098145,34.4301758 L158.098145,43.7490234 L175.60791,43.7490234 L175.60791,51 L148.671875,51 L148.671875,11.8984375 L175.661621,11.8984375 L175.661621,19.1762695 L158.098145,19.1762695 L158.098145,27.4208984 L172.922363,27.4208984 L172.922363,34.4301758 Z M211.083984,37.7602539 C210.958658,40.4816217 210.224616,42.8851621 208.881836,44.9709473 C207.539056,47.0567324 205.654716,48.6725203 203.22876,49.8183594 C200.802804,50.9641984 198.032242,51.5371094 194.916992,51.5371094 C189.77862,51.5371094 185.732437,49.8631352 182.77832,46.5151367 C179.824204,43.1671382 178.347168,38.440623 178.347168,32.3354492 L178.347168,30.4018555 C178.347168,26.5704561 179.014072,23.2180319 180.3479,20.3444824 C181.681729,17.4709329 183.601875,15.250903 186.108398,13.6843262 C188.614921,12.1177493 191.515283,11.3344727 194.80957,11.3344727 C199.55406,11.3344727 203.367499,12.5832395 206.25,15.0808105 C209.132501,17.5783816 210.770669,21.0203231 211.164551,25.4067383 L201.765137,25.4067383 C201.693522,23.0255415 201.093756,21.3157604 199.96582,20.2773438 C198.837885,19.2389271 197.119152,18.7197266 194.80957,18.7197266 C192.464181,18.7197266 190.745448,19.5969964 189.65332,21.3515625 C188.561192,23.1061286 187.988282,25.9080211 187.93457,29.7573242 L187.93457,32.5234375 C187.93457,36.6950078 188.458247,39.6759351 189.505615,41.4663086 C190.552984,43.2566821 192.356758,44.1518555 194.916992,44.1518555 C197.083344,44.1518555 198.739415,43.6416067 199.885254,42.6210938 C201.031093,41.6005808 201.639811,39.9803171 201.711426,37.7602539 L211.083984,37.7602539 Z" id="path-1"></path>
        <path d="M239.577637,42.4868164 C239.917808,40.1235233 239.403083,38.2660387 238.033448,36.9143066 C236.663812,35.5625746 234.018575,34.206387 230.097657,32.8457031 C225.94399,31.4671155 222.931732,29.9005622 221.060791,28.1459961 C219.189851,26.39143 218.505043,23.840186 219.006348,20.4921875 C219.436038,17.6275898 220.859363,15.3851806 223.276368,13.7648926 C225.693372,12.1446045 228.62954,11.3344727 232.084961,11.3344727 C236.023783,11.3344727 239.112131,12.3773496 241.350098,14.4631348 C243.588065,16.5489199 244.402673,19.3910953 243.793946,22.9897461 L243.740235,23.1508789 L240.732422,23.1508789 C241.126304,20.4474149 240.490731,18.2587161 238.825684,16.5847168 C237.160637,14.9107175 234.770524,14.0737305 231.655274,14.0737305 C229.166655,14.0737305 227.036142,14.7003518 225.263672,15.9536133 C223.491202,17.2068748 222.479657,18.7018142 222.229004,20.4384766 C221.853026,22.8196734 222.300613,24.6726822 223.571778,25.9975586 C224.842943,27.322435 227.483704,28.6741468 231.494141,30.0527344 C235.665711,31.4492257 238.713777,33.051586 240.638428,34.8598633 C242.56308,36.6681406 243.283694,39.1925294 242.800293,42.4331055 C242.3527,45.3872218 240.85776,47.6475345 238.31543,49.2141113 C235.7731,50.7806882 232.648945,51.5639648 228.942871,51.5639648 C225.057761,51.5639648 221.785902,50.619557 219.127198,48.7307129 C216.468493,46.8418688 215.488278,43.9101761 216.186524,39.9355469 L216.240235,39.7744141 L219.221192,39.7744141 C218.719887,43.0687014 219.50764,45.4051038 221.584473,46.7836914 C223.661306,48.162279 226.248357,48.8515625 229.345704,48.8515625 C231.923841,48.8515625 234.202058,48.2338929 236.18042,46.9985352 C238.158783,45.7631774 239.291177,44.2592862 239.577637,42.4868164 Z M268.017579,46.300293 L268.178711,46.3271484 L287.890625,11.8984375 L291.811524,11.8984375 L285.957032,51 L282.734375,51 L287.648926,18.1826172 L287.487793,18.1289062 L268.554688,51 L266.245118,51 L256.953125,17.3232422 L256.791993,17.3232422 L251.743164,51 L248.520508,51 L254.375,11.8984375 L258.671875,11.8984375 L268.017579,46.300293 Z M318.50586,40.0966797 L301.372071,40.0966797 L295.786133,51 L292.456055,51 L312.678223,11.8984375 L315.712891,11.8984375 L324.118653,51 L320.788575,51 L318.50586,40.0966797 Z M302.849121,37.2231445 L317.915039,37.2231445 L313.618164,16.5175781 L313.457032,16.4907227 L302.849121,37.2231445 Z M335.935059,33.3291016 L333.303223,51 L330.080567,51 L335.935059,11.925293 L348.959961,11.925293 C352.988302,11.925293 356.022939,12.8517974 358.063965,14.704834 C360.104991,16.5578706 360.865888,19.229963 360.34668,22.7211914 C360.006509,24.8875434 359.120287,26.7763591 357.687989,28.3876953 C356.25569,29.9990315 354.375826,31.1717086 352.04834,31.9057617 C354.322115,32.5323925 355.893144,33.6334557 356.761475,35.2089844 C357.629806,36.7845131 357.902834,38.7270392 357.580567,41.0366211 L357.016602,44.7158203 C356.819661,45.9690818 356.792806,47.070145 356.936036,48.019043 C357.079265,48.9679409 357.446286,49.7467417 358.03711,50.3554688 L357.929688,51 L354.653321,51 C354.098305,50.3554655 353.771567,49.4513405 353.673096,48.2875977 C353.574626,47.1238549 353.614908,45.9153708 353.793946,44.6621094 L354.331055,41.090332 C354.68913,38.6017128 354.210212,36.6860419 352.894287,35.3432617 C351.578363,34.0004816 349.514988,33.3291016 346.704102,33.3291016 L335.935059,33.3291016 Z M336.364746,30.5898438 L345.791016,30.5898438 C349.174822,30.5898438 351.824535,29.8647533 353.740235,28.4145508 C355.655934,26.9643482 356.792805,25.057629 357.150879,22.6943359 C357.544761,20.0266794 357.043464,18.0214911 355.646973,16.6787109 C354.250482,15.3359308 351.887224,14.6645508 348.557129,14.6645508 L338.754883,14.6645508 L336.364746,30.5898438 Z M395.930176,14.6376953 L382.583008,14.6376953 L377.158204,51 L373.962403,51 L379.387207,14.6376953 L365.637207,14.6376953 L366.040039,11.8984375 L396.333008,11.8984375 L395.930176,14.6376953 Z" id="path-2"></path>
    </defs>
    <g id="Page-1" stroke="none" stroke-width="1" fill="none" fill-rule="evenodd">
        <g id="logo-new" fill-rule="nonzero">
            <g id="logo-blue">
                <path d="M132.180923,0.0314518438 C129.047518,0.295114508 125.950116,0.889672987 122.939486,1.80538184 C107.786096,6.29487245 96.2287169,18.7176099 92.7379094,34.2683009 C92.0351385,37.8161609 92.0702771,36.6808457 92,62.1012626 L92,85.659053 L92.3162469,85.7654888 C92.8608943,85.9428818 119.179662,86.0670569 129.475255,85.9606211 C140.016818,85.836446 141.299374,85.7654888 144.53212,85.126874 C154.356281,83.0887648 163.181709,77.6871182 169.515624,69.8355974 C172.319845,66.245614 174.61971,62.2818882 176.35007,58.0567022 C178.634128,52.0063311 179.459192,45.4939666 178.75706,39.0579119 C178.181689,33.0359263 176.387712,27.1973783 173.486279,21.9040088 C166.70454,10.0718956 154.89799,2.40851805 140.350634,0.333019944 C137.637503,0.0429609047 134.907788,-0.0578009235 132.180923,0.0314518438 Z M137.153026,20.3074718 C147.044526,21.2476547 155.337222,27.9176315 157.709074,36.8227601 C158.907509,41.6780801 158.594628,46.788365 156.813041,51.4576826 C155.743285,54.4109179 153.997485,57.067118 151.717952,59.2097567 C149.411635,61.5966105 146.547875,63.3595558 143.390118,64.3364144 C139.419462,65.6313833 134.605482,65.9861693 121.112282,65.9861693 C114.312974,65.9861693 113.838604,65.9861693 113.416941,65.7555584 C113.136433,65.5767562 112.901671,65.3336446 112.73174,65.0459864 C112.503339,64.6025039 112.503339,64.0348463 112.48577,52.7703908 C112.48577,42.3574217 112.48577,40.7963633 112.679032,39.6787874 C113.242213,36.0425165 114.644513,32.5909516 116.772672,29.602865 C118.293674,27.6057288 120.06546,25.8167965 122.043453,24.281075 C126.466056,21.2014594 131.822291,19.7944815 137.170596,20.3074718 L137.153026,20.3074718 Z" id="Shape" fill="#1E3F88"></path>
                <path d="M0.024778425,131.166047 C0.282327624,128.035171 0.863100256,124.940269 1.75757685,121.932069 C6.13762317,106.784119 18.2733086,95.2284077 33.467788,91.7373138 C36.9333849,91.0351102 35.8243939,91.0702204 60.6553953,91 L83.6669584,91 L83.7709263,91.3159916 C83.9442062,91.8601994 84.0655021,118.157725 83.9615342,128.445008 C83.8402383,138.978062 83.7709263,140.259583 83.1471189,143.48972 C81.1711257,153.331378 75.8934239,162.176669 68.2103965,168.523279 C64.7036529,171.325236 60.8318329,173.623245 56.7046149,175.352209 C50.794532,177.634423 44.4331676,178.458821 38.1463438,177.757256 C32.2639882,177.18235 26.5608168,175.38982 21.390183,172.490729 C9.83241751,165.574024 2.3640563,153.847223 0.336682142,139.241388 C0.0515264525,136.559929 -0.0526835215,133.861881 0.024778425,131.166047 L0.024778425,131.166047 Z M19.8653204,136.134137 C20.7837036,146.017653 27.2990256,154.303656 35.9976737,156.673593 C40.7404149,157.871061 45.7322092,157.558433 50.2932608,155.778283 C53.1780203,154.709391 55.7726319,152.965 57.8655899,150.687307 C60.1971005,148.382852 61.9191689,145.521403 62.8733773,142.366194 C64.1383202,138.398744 64.4848799,133.588649 64.4848799,120.10634 C64.4848799,113.31252 64.4848799,112.838532 64.2596161,112.41721 C64.0849597,112.136928 63.847485,111.902356 63.5664967,111.732562 C63.1332971,111.504345 62.5788016,111.504345 51.5755316,111.48679 C41.4040048,111.48679 39.8791422,111.48679 38.7874792,111.679896 C35.2355214,112.242623 31.8639869,113.643791 28.9451841,115.770232 C26.994355,117.290007 25.2469021,119.060362 23.7467889,121.03676 C20.7425529,125.45102 19.3683847,130.795991 19.8653204,136.134137 L19.8653204,136.134137 Z" id="Shape-2" fill="#1E3F88"></path>
                <path d="M47.2263772,14.0497984 C41.2745491,14.2873889 35.4710937,15.985965 30.3228097,18.997195 C17.9003329,26.3760467 11.2042978,40.6178669 13.4192421,54.9494506 C14.6561406,61.9542862 18.0146486,68.4044224 23.0358831,73.4185575 C25.7471203,76.2419835 28.9160412,78.5817338 32.407291,80.3378701 C35.813262,82.0907419 39.4921229,83.2459039 43.2851309,83.7535105 C44.5112964,83.9471808 46.5782611,83.9647872 64.2000113,84 C82.8727605,84 83.7661096,84 83.8712095,83.8239361 C83.9763094,83.6478721 84.098926,51.2697144 83.8712095,47.7660421 C83.8712095,46.1462539 83.6434931,44.2447634 83.5383932,43.5405076 C81.7208009,32.211067 74.4959086,22.4956345 64.2000113,17.5358643 C59.7387067,15.3196091 54.8467923,14.1174142 49.8713914,14.0145856 C49.4860251,13.9793728 48.2948928,14.0145856 47.2263772,14.0497984 Z M52.393789,30.9519362 C56.6970936,31.7586064 60.5763203,34.0731128 63.3416954,37.4839082 C65.8290598,40.6530591 66.8450255,43.7517843 67.2829417,49.0513088 C67.370525,50.090086 67.4581082,54.3332269 67.5106582,58.6467933 C67.5106582,65.6893507 67.5106582,66.3760001 67.370525,66.7457343 C66.9501254,67.5732348 67.370525,67.5386606 56.8605348,67.5386606 C45.8600784,67.5386606 45.5447787,67.5386606 42.6194981,66.5696704 C37.2080431,64.8536715 32.8769452,60.7404313 30.8658258,55.4072169 C29.1383595,50.5701801 29.5003334,45.2276484 31.8642749,40.6706655 C33.7540981,37.0829138 36.6871137,34.1594385 40.272267,32.2900221 C41.7136573,31.6191962 43.2313996,31.1284287 44.7915628,30.8286915 L45.9476617,30.6350211 C46.0527616,30.6350211 47.2789271,30.6350211 48.6627425,30.6350211 C49.9082762,30.6076242 51.1531637,30.7138636 52.3762723,30.9519362 L52.393789,30.9519362 Z" id="Shape-3" fill="#FC7819"></path>
                <path d="M92.1050754,93.1283071 C92.1050754,93.7100904 92,101.714019 92,110.916773 C92,127.947158 92,130.309551 92.5078646,133.130319 C94.4324166,143.782253 101.134491,152.942991 110.668403,157.953074 C114.241649,159.857983 118.107317,161.145232 122.104114,161.76111 C125.464935,162.07963 128.848048,162.07963 132.208869,161.76111 C139.812167,160.815687 146.901506,157.39894 152.400866,152.029462 C160.760812,143.777932 164.518712,131.893991 162.435571,120.295826 C161.260133,114.623072 158.743053,109.319358 155.097803,104.834493 C153.389311,102.872083 151.533336,101.044943 149.546317,99.3692555 C144.883941,95.7024012 139.379034,93.2771255 133.539825,92.3173364 L131.94618,92.0352596 L112.121947,92 L92.245176,92 L92.1050754,93.1283071 Z M130.019797,108.713048 C134.128608,109.22588 137.956016,111.084253 140.912618,114.001988 C143.452015,116.464277 145.207489,119.630554 145.956239,123.098964 C146.205589,124.321999 146.299741,125.571948 146.236441,126.818851 C146.316452,128.146418 146.192404,129.478463 145.868676,130.767926 C144.284026,137.991558 138.658476,143.620315 131.473341,145.171471 C128.953002,145.53892 126.393223,145.53892 123.872884,145.171471 C117.492266,144.186143 112.13613,139.811893 109.862825,133.729732 C108.812071,130.891334 108.566895,128.158716 108.461819,118.127361 C108.461819,113.860949 108.461819,110.123432 108.461819,109.823726 C108.528738,109.193778 108.986302,108.676459 109.600136,108.53675 C110.493278,108.378082 128.898993,108.466231 130.002285,108.624899 L130.019797,108.713048 Z" id="Shape-4" fill="#FC7819"></path>
            </g>
            <g id="Group" transform="translate(185.000000, 57.000000)">
                <g id="Бизнесsmart">
                    <g id="БИЗНЕС">
                        <use fill="#000000" xlink:href="#path-1"></use>
                        <use fill="#1E3F88" xlink:href="#path-1"></use>
                    </g>
                    <g id="SMART">
                        <use fill="#000000" xlink:href="#path-2"></use>
                        <use fill="#1E3F88" xlink:href="#path-2"></use>
                    </g>
                </g>
            </g>
        </g>
    </g>
</svg>